<mxfile host="app.diagrams.net" modified="2024-06-13T01:54:43.586Z" agent="Mozilla/5.0 (Windows NT 10.0; Win64; x64) AppleWebKit/537.36 (KHTML, like Gecko) Chrome/109.0.0.0 Safari/537.36 SLBrowser/9.0.3.5211 SLBChan/33" version="24.4.13" etag="fTNnNPsHPvZ-wv3Bt6mR" type="github">
  <diagram name="第 1 页" id="r00cZl-3LI38jmDTdXTs">
    <mxGraphModel>
      <root>
        <mxCell id="0" />
        <mxCell id="1" parent="0" />
      </root>
    </mxGraphModel>
  </diagram>
</mxfile>
